<svg xmlns="http://www.w3.org/2000/svg" viewBox="0 0 420 96" role="img" aria-labelledby="title desc">
  <title id="title">Nexadura logo</title>
  <desc id="desc">Nexadura wordmark with an angular automation mark.</desc>
  <rect width="420" height="96" fill="none"/>
  <path d="M20 72V24h12.5l25 30.8V24H72v48H59.5l-25-30.8V72H20Z" fill="#fff"/>
  <path d="M92 72V24h42v12H107v6.5h24v11h-24V60h28v12H92Z" fill="#fff"/>
  <path d="m148 72 18.2-24.8L148.8 24h17.5l8.8 12.8 8.9-12.8h17.1l-17.5 23.2L202 72h-17.6L175 58.3 165.7 72H148Z" fill="#fff"/>
  <path d="M220 72V24h16v48h-16Z" fill="#fff"/>
  <path d="M256 72V24h21.8c15.8 0 26.2 9.2 26.2 24s-10.4 24-26.2 24H256Zm16-12h5.2c7 0 11-4.6 11-12s-4-12-11-12H272v24Z" fill="#fff"/>
  <path d="M314 72 334.1 24h15.7L370 72h-16.8l-3-7.8h-17.6l-3 7.8H314Zm22.5-18.4h9.8l-4.9-12.9-4.9 12.9Z" fill="#fff"/>
  <path d="M385 24h15v48h-15V24Z" fill="#60a5fa"/>
  <path d="M388 20h24v8h-24zM388 68h24v8h-24z" fill="#3b82f6"/>
</svg>