<svg xmlns="http://www.w3.org/2000/svg" viewBox="0 0 96 96" role="img" aria-labelledby="title desc">
  <title id="title">NEXURA AI diagnostic robot</title>
  <desc id="desc">Square robotic chatbot mark for the NEXURADATA diagnostic assistant.</desc>
  <rect x="8" y="14" width="80" height="70" fill="#0d0d0b"/>
  <rect x="8" y="14" width="80" height="70" fill="none" stroke="#e8e4dc" stroke-width="2"/>
  <path d="M18 28h60M18 66h60M28 14V6h40v8" fill="none" stroke="#e8e4dc" stroke-width="2"/>
  <rect x="24" y="32" width="16" height="16" fill="#e8e4dc"/>
  <rect x="56" y="32" width="16" height="16" fill="#e8e4dc"/>
  <rect x="28" y="36" width="8" height="8" fill="#0d0d0b"/>
  <rect x="60" y="36" width="8" height="8" fill="#0d0d0b"/>
  <rect x="29" y="58" width="38" height="2" fill="#e8e4dc"/>
  <rect x="18" y="74" width="10" height="10" fill="#e8e4dc"/>
  <rect x="34" y="74" width="10" height="10" fill="#e8e4dc" opacity="0.72"/>
  <rect x="50" y="74" width="10" height="10" fill="#e8e4dc" opacity="0.48"/>
  <rect x="66" y="74" width="10" height="10" fill="#e8e4dc" opacity="0.28"/>
  <path d="M0 34h8M88 34h8M0 54h8M88 54h8" fill="none" stroke="#e8e4dc" stroke-width="2"/>
</svg>